<?xml version="1.0" standalone="yes"?>
<svg xmlns="http://www.w3.org/2000/svg" width="555" height="829">
<path style="fill:#fefefe; stroke:none;" d="M0 0L0 829L555 829L555 0L0 0z"/>
<path style="fill:#050505; stroke:none;" d="M249 5.42438C212.644 10.2567 178.648 20.5159 148 41.3441C70.5327 93.991 33.4089 195.342 63.0008 285C72.2114 312.906 85.9543 338.603 105.131 361C111.634 368.595 118.402 375.755 126 382.271C130.17 385.847 135.426 389.085 135.941 395C138.057 419.264 136 444.634 136 469L136 618L136 669C136 684.447 135.765 699.92 139.735 715C155.436 774.646 214.151 823.273 278 815.714C291.576 814.107 305.279 811.727 318 806.548C357.567 790.441 388.839 755.092 397.789 713C404.237 682.681 401 649.838 401 619L401 469C401 444.634 398.943 419.265 401.059 395C401.604 388.742 407.602 385.189 412 381.421C420.242 374.358 427.593 366.306 434.562 358C454.937 333.714 469.206 304.571 477.265 274C497.847 195.929 470.843 110.23 410 57.2894C381.558 32.5416 346.853 16.1697 310 8.80017C290.637 4.92822 268.684 2.80804 249 5.42438z"/>
<path style="fill:#fefefe; stroke:none;" d="M258 28.4244C227.95 32.37 199.592 37.7194 173 53.4521C155.719 63.676 139.658 76.0661 126.17 91C78.1698 144.143 64.0562 221.132 89.0502 288C98.2334 312.569 112.439 335.431 131 354C137.126 360.129 143.226 366.129 150 371.551C154.346 375.03 159.414 377.95 159.941 384C162.112 408.921 160 434.975 160 460L160 614L160 669C160 680.984 159.193 693.198 161.665 705C173.111 759.654 225.144 798.395 281 791.714C327.534 786.149 367.093 750.516 375.537 704C377.63 692.471 377 680.662 377 669L377 616L377 461C377 435.646 374.86 409.248 377.059 384C377.549 378.373 381.894 375.577 386 372.339C392.754 367.012 399.785 361.335 405.576 354.961C425.495 333.033 441.918 308.455 450.971 280C478.884 192.267 440.638 91.6797 357 49.7531C341.667 42.0667 325.855 35.9927 309 32.6003C292.677 29.3151 274.665 26.2363 258 28.4244z"/>
<path style="fill:#050505; stroke:none;" d="M263 54.4244C253.663 55.6504 244.291 55.7499 235 57.6659C205.914 63.6638 177.758 77.8296 156 98.0895C140.427 112.59 128.119 129.957 118.756 149C82.6819 222.375 109.964 314.997 178 359.305C213.334 382.315 254.707 389.572 296 383.715C380.367 371.748 441.829 288.717 433.83 205C427.187 135.477 377.111 77.657 310 59.7184C295.551 55.8561 277.955 52.4607 263 54.4244z"/>
<path style="fill:#fefefe; stroke:none;" d="M262 67.4244C253.625 68.524 245.315 68.8619 237 70.662C208.147 76.9087 179.604 91.4436 159.17 113.039C107.686 167.45 101.585 251.487 146.156 312C156.051 325.434 168.357 336.745 182 346.279C195.675 355.834 211.81 363.525 228 367.626C247.88 372.661 267.624 374.249 288 371.714C338.475 365.434 384.145 332.913 406.216 287C418.11 262.258 422.783 234.32 420.91 207C416.779 146.731 373.799 95.6594 318 75.7824C301.284 69.8276 279.802 65.0869 262 67.4244z"/>
<path style="fill:#050505; stroke:none;" d="M237 79C237.001 86.451 237.377 93.087 243.185 98.5355C253.92 108.605 275.884 109.959 276.892 128C277.675 142.014 264.732 147.398 254 152.001C248.7 154.274 242.12 156.869 240.434 163.001C239.249 167.308 240 172.568 240 177L240 203C240 207.54 238.917 213.79 241.894 217.62C249.195 227.015 264.072 221.658 267.319 236C269.677 246.42 260.509 255.551 260.039 266C259.863 269.926 259.341 275.387 264.059 276.682C273.161 279.181 277.625 272.868 281.797 266C289.022 254.107 296.785 241.444 295.957 227C294.903 208.632 264.451 205.244 265.387 186C265.663 180.336 270.41 177.067 275 174.761C283.292 170.595 294.706 169.671 298.772 159.999C301.873 152.623 300 141.875 300 134L300 79C289.978 78.5698 280.063 76.0758 270 76.0046C258.916 75.9263 248.011 78.5273 237 79z"/>
</svg>
