<?xml version="1.0" standalone="yes"?>
<svg xmlns="http://www.w3.org/2000/svg" width="555" height="829">
<path style="fill:#050505; stroke:none;" d="M252 5.42438C213.933 10.4227 179.191 20.0397 147 42.0286C70.4915 94.2892 33.7618 195.291 62.6698 284C71.8299 312.109 85.5882 338.65 105.156 361C111.435 368.172 117.752 375.056 125 381.271C129.902 385.474 135.678 389.005 135.981 396C137.015 419.901 136 444.074 136 468L136 612L136 668C136 684.513 135.797 700.938 140.294 717C156.7 775.6 214.997 823.173 278 815.714C289.009 814.411 300.493 812.82 311 809.135C354.541 793.863 389.058 756.663 398.192 711C404.136 681.286 401 649.172 401 619L401 469C401 444.633 398.945 419.266 401.059 395C401.61 388.669 407.553 385.084 412 381.271C419.91 374.488 426.98 366.952 433.704 359C453.174 335.973 467.884 308.089 475.848 279C482.209 255.768 485.562 231.116 483.91 207C477.355 111.272 406.596 28.1221 312 9.19983C292.807 5.3606 271.545 2.85803 252 5.42438M259 28.2855C275.013 26.3961 292.324 29.2588 308 32.3997C327.332 36.2731 345.776 43.2521 363 52.8619C441.407 96.6078 479.103 193.793 451.33 279C441.937 307.82 425.942 332.612 405.715 354.985C399.897 361.42 392.759 366.987 386 372.4C381.963 375.632 377.543 378.442 377.059 384C374.828 409.575 377 436.318 377 462L377 618L377 668C377 679.695 377.498 691.408 375.704 703C368.443 749.91 326.784 787.36 280 791.83C224.344 797.148 171.937 759.552 161.46 704C159.288 692.483 160 680.664 160 669L160 616L160 461C160 435.646 162.14 409.248 159.941 384C159.417 377.981 154.373 374.992 150 371.576C143.517 366.512 137.039 360.931 131.424 354.91C111.772 333.835 96.8741 310.117 87.054 283C56.6817 199.131 93.1794 103.005 168 56.4252C196.223 38.855 226.52 32.1179 259 28.2855M252 55.4244C225.882 58.8958 201.233 65.9254 179 80.6674C159.446 93.6334 142.999 109.386 130.004 129C80.0432 204.407 102.166 309.919 178 359.305C213.316 382.304 254.732 389.568 296 383.715C317.066 380.726 337.938 372.259 356 361.189C372.91 350.825 388.321 336.751 400.346 321C451.739 253.681 443.058 154.126 380 97.1697C360.052 79.1522 335.866 66.6323 310 59.7184C291.754 54.8412 270.814 52.9237 252 55.4244M263 67.2855C267.799 66.7195 272.244 67.5772 277 67.9105C291.119 68.9001 304.613 71.0135 318 75.7824C382.929 98.9119 427.474 163.228 420.83 233C415.143 292.723 375.859 344.506 319 364.761C306.799 369.107 292.875 371.6 280 372.83C266.791 374.092 252.987 372.838 240 370.389C150.668 353.541 93.5744 257.364 123.695 171C138.263 129.231 169.927 95.1699 211 78.4521C227.84 71.5979 245.163 69.389 263 67.2855M237 79C237.001 87.5369 237.961 94.3965 245.09 100.076C255.977 108.748 275.934 110.861 276.892 128C277.642 141.414 265.534 147.298 255 151.603C249.423 153.883 242.203 156.565 240.434 163.001C239.249 167.308 240 172.568 240 177L240 203C240 207.79 238.932 213.911 242.318 217.811C249.907 226.553 264.33 222.13 267.47 236C269.808 246.33 260.504 255.669 260.039 266C259.863 269.926 259.342 275.387 264.059 276.682C273.294 279.218 277.39 272.809 281.681 266C289.075 254.27 296.827 241.385 295.956 227C294.845 208.657 264.454 205.197 265.387 186C265.659 180.412 270.385 176.858 275 174.645C283.345 170.643 294.715 169.649 298.772 159.999C301.873 152.623 300 141.875 300 134L300 79C289.978 78.5698 280.063 76.0758 270 76.0046C258.916 75.9263 248.011 78.5273 237 79z"/>
</svg>
