<?xml version="1.0" encoding="iso-8859-1"?>
<!-- Generator: Adobe Illustrator 19.0.0, SVG Export Plug-In . SVG Version: 6.00 Build 0)  -->
<svg version="1.1" id="Capa_1" xmlns="http://www.w3.org/2000/svg" xmlns:xlink="http://www.w3.org/1999/xlink" x="0px" y="0px"
	 viewBox="0 0 512 512" style="enable-background:new 0 0 512 512;" xml:space="preserve">
<g>
	<g>
		<path d="M180.89,135.27c-0.282,0.068-0.58,0.094-0.87,0.162c-0.631,0.145-1.263,0.239-1.903,0.35
			c-2.313,0.418-4.668,0.691-7.031,0.708c-0.145,0-0.273,0.043-0.41,0.043s-0.273-0.043-0.41-0.043
			c-2.364-0.026-4.71-0.299-7.031-0.708c-0.64-0.111-1.271-0.213-1.903-0.35c-0.29-0.068-0.58-0.085-0.87-0.162
			c2.099,12.467,2.099,24.166,0,36.668c0.29-0.077,0.589-0.102,0.887-0.162c0.606-0.137,1.22-0.23,1.835-0.341
			c2.475-0.452,4.975-0.759,7.501-0.759c2.534,0,5.035,0.307,7.509,0.759c0.614,0.111,1.229,0.205,1.826,0.341
			c0.29,0.068,0.589,0.094,0.888,0.162C178.79,159.437,178.79,147.729,180.89,135.27z"/>
	</g>
</g>
<g>
	<g>
		<path d="M170.667,68.267c-14.114,0-25.6,11.486-25.6,25.6c0,7.458,3.251,14.114,8.354,18.799c0.034,0.026,0.077,0.043,0.111,0.068
			c9.557,8.687,24.713,8.687,34.27,0c0.034-0.034,0.077-0.043,0.111-0.068c5.111-4.685,8.354-11.341,8.354-18.799
			C196.267,79.753,184.781,68.267,170.667,68.267z"/>
	</g>
</g>
<g>
	<g>
		<path d="M187.861,194.5c-0.026-0.026-0.06-0.034-0.094-0.051c-9.566-8.653-24.644-8.653-34.21,0
			c-0.026,0.026-0.068,0.043-0.102,0.068c-5.12,4.685-8.388,11.358-8.388,18.825c0,14.114,11.486,25.6,25.6,25.6
			s25.6-11.486,25.6-25.6C196.267,205.858,192.99,199.177,187.861,194.5z"/>
	</g>
</g>
<g>
	<g>
		<circle cx="145.067" cy="435.2" r="17.067"/>
	</g>
</g>
<g>
	<g>
		<path d="M401.067,307.2c-14.114,0-25.6,11.486-25.6,25.6V512h25.6c23.526,0,42.667-19.14,42.667-42.667V307.2H401.067z"/>
	</g>
</g>
<g>
	<g>
		<circle cx="256" cy="153.6" r="25.6"/>
	</g>
</g>
<g>
	<g>
		<path d="M401.067,0H110.933C87.407,0,68.267,19.14,68.267,42.667v426.667c0,23.526,19.14,42.667,42.667,42.667H358.4V332.8
			c0-23.526,19.14-42.667,42.667-42.667h42.667V42.667C443.733,19.14,424.593,0,401.067,0z M256,110.933
			c23.526,0,42.667,19.14,42.667,42.667c0,23.526-19.14,42.667-42.667,42.667c-23.526,0-42.667-19.14-42.667-42.667
			C213.333,130.074,232.474,110.933,256,110.933z M145.067,469.333c-18.825,0-34.133-15.309-34.133-34.133
			c0-18.825,15.309-34.133,34.133-34.133S179.2,416.375,179.2,435.2C179.2,454.025,163.883,469.333,145.067,469.333z M170.667,256
			C147.14,256,128,236.86,128,213.333c0-11.614,4.693-22.144,12.254-29.841c6.178-21.606,6.17-38.332-0.043-59.827
			C132.685,115.968,128,105.464,128,93.867C128,70.34,147.14,51.2,170.667,51.2c23.526,0,42.667,19.14,42.667,42.667
			c0,11.597-4.676,22.093-12.211,29.798c-6.212,21.495-6.221,38.221-0.043,59.827c7.561,7.706,12.254,18.227,12.254,29.841
			C213.333,236.86,194.193,256,170.667,256z M305.613,312.158l-42.667,59.733c-1.604,2.244-4.19,3.575-6.946,3.575
			s-5.342-1.331-6.946-3.575l-42.667-59.733c-2.116-2.97-2.116-6.946,0-9.916l42.667-59.733c3.208-4.48,10.684-4.48,13.892,0
			l42.667,59.733C307.729,305.212,307.729,309.188,305.613,312.158z"/>
	</g>
</g>
<g>
	<g>
		<polygon points="256,262.153 223.821,307.2 256,352.247 288.179,307.2 		"/>
	</g>
</g>
<g>
</g>
<g>
</g>
<g>
</g>
<g>
</g>
<g>
</g>
<g>
</g>
<g>
</g>
<g>
</g>
<g>
</g>
<g>
</g>
<g>
</g>
<g>
</g>
<g>
</g>
<g>
</g>
<g>
</g>
</svg>
