<!DOCTYPE svg PUBLIC "-//W3C//DTD SVG 20010904//EN" "http://www.w3.org/TR/2001/REC-SVG-20010904/DTD/svg10.dtd">
<svg version="1.0" xmlns="http://www.w3.org/2000/svg" width="223px" height="233px" viewBox="0 0 2230 2330" preserveAspectRatio="xMidYMid meet">
<g id="layer101" fill="#0e0e0e" stroke="none">
 <path d="M1905 2232 c-85 -30 -219 -127 -445 -321 -168 -145 -319 -265 -360 -286 -64 -33 -134 -4 -170 70 -27 56 -21 89 29 153 92 117 98 126 73 113 -12 -6 -48 -46 -79 -87 -51 -69 -57 -80 -56 -124 1 -61 29 -108 81 -138 63 -35 98 -29 182 28 40 28 129 99 198 158 331 284 485 398 570 423 56 16 110 0 157 -47 93 -92 101 -209 20 -284 -22 -20 -28 -22 -35 -10 -6 10 -1 25 17 48 35 47 41 107 15 158 -39 76 -101 111 -164 93 -76 -20 -250 -146 -463 -333 -152 -134 -304 -254 -350 -276 -52 -25 -105 -25 -154 0 -77 39 -131 138 -117 213 4 19 29 64 57 101 27 36 45 66 40 66 -15 0 -59 -49 -89 -100 -91 -153 69 -362 239 -311 44 13 190 120 329 241 267 232 454 370 518 385 67 14 152 -68 152 -147 0 -47 -43 -108 -76 -108 -15 0 -39 -11 -56 -25 -16 -14 -39 -25 -50 -25 -12 0 -96 -63 -198 -149 -97 -82 -192 -156 -211 -164 -29 -13 -156 -120 -306 -258 -37 -35 -48 -39 -92 -39 -47 0 -54 -4 -106 -53 -50 -45 -58 -58 -62 -97 -3 -29 0 -59 10 -82 l16 -37 -257 -238 c-403 -374 -394 -365 -387 -396 6 -22 -5 -39 -79 -124 -47 -53 -86 -103 -86 -109 0 -32 28 -20 128 56 90 69 111 81 135 76 25 -5 53 18 315 261 158 146 303 281 323 300 35 33 36 33 72 18 20 -8 56 -15 81 -15 41 0 50 5 105 58 57 54 61 61 61 102 0 45 1 46 160 205 88 88 160 165 160 171 0 6 77 91 170 189 94 98 170 184 170 193 0 8 14 30 30 49 19 21 29 41 25 52 -3 11 5 26 21 42 87 81 84 216 -7 307 -64 65 -127 82 -204 54z m105 -367 c-15 -16 -27 -22 -33 -16 -14 14 10 41 36 41 20 0 20 -1 -3 -25z m-30 -52 c68 -66 70 -62 -107 -245 -87 -90 -161 -163 -164 -163 -4 0 -22 22 -41 50 -18 28 -50 59 -70 70 -40 21 -51 41 -19 32 12 -3 18 1 17 12 -1 9 6 15 16 15 11 -1 14 4 11 14 -4 10 -2 13 5 8 7 -4 12 -2 12 4 0 6 11 15 25 22 13 6 22 15 19 19 -3 5 -1 9 4 9 8 0 74 53 147 118 46 41 88 72 97 72 5 0 26 -17 48 -37z m-440 -287 c0 -2 -70 -65 -155 -141 -143 -127 -170 -155 -146 -155 33 0 148 -153 138 -183 -2 -7 -14 8 -26 32 -25 49 -109 136 -141 146 -11 3 -20 12 -19 18 1 19 311 287 331 287 10 0 18 -2 18 -4z m-450 -305 c0 -5 -6 -12 -12 -14 -7 -3 -4 -6 7 -6 33 -2 118 -56 159 -101 61 -68 111 -200 76 -200 -5 0 -10 12 -10 28 -1 96 -135 238 -244 258 l-40 7 23 18 c25 21 41 24 41 10z m2 -61 c49 -14 143 -101 174 -161 26 -52 31 -115 12 -142 -20 -27 -69 -36 -112 -22 -21 7 -40 16 -44 19 -3 4 11 24 32 45 33 33 37 44 32 68 -4 15 -21 43 -39 61 -41 42 -80 43 -126 1 -41 -37 -52 -29 -59 40 -4 43 -1 53 21 75 28 28 52 32 109 16z m50 -152 c40 -52 36 -64 -48 -141 -43 -40 -195 -181 -338 -315 -240 -223 -261 -241 -269 -220 -4 13 -20 35 -35 51 l-26 27 29 29 c17 15 134 124 260 241 290 269 367 342 363 346 -2 1 -153 -137 -337 -307 -183 -171 -335 -308 -339 -305 -7 8 -34 -18 350 339 289 270 309 286 340 282 18 -2 40 -14 50 -27z m-709 -659 c22 -24 38 -79 23 -79 -2 0 -12 -3 -21 -7 -14 -5 -16 -2 -10 15 3 12 4 30 0 40 -7 23 -49 44 -70 36 -18 -7 -20 7 -3 24 17 17 48 6 81 -29z m-35 -21 c24 -24 9 -45 -90 -118 -56 -41 -106 -77 -111 -79 -6 -2 32 44 83 103 52 58 96 106 100 106 3 0 11 -5 18 -12z"/>
 <path d="M1655 1590 c3 -5 8 -10 11 -10 3 0 2 5 -1 10 -3 6 -8 10 -11 10 -3 0 -2 -4 1 -10z"/>
 </g>

</svg>