<!DOCTYPE svg PUBLIC "-//W3C//DTD SVG 20010904//EN" "http://www.w3.org/TR/2001/REC-SVG-20010904/DTD/svg10.dtd">
<svg version="1.0" xmlns="http://www.w3.org/2000/svg" width="600px" height="251px" viewBox="0 0 6000 2510" preserveAspectRatio="xMidYMid meet">
<g id="layer101" fill="#0082cc" stroke="none">
 <path d="M4662 2439 c-166 -16 -291 -53 -445 -131 -164 -84 -314 -210 -418 -350 -87 -117 -188 -163 -342 -156 -109 4 -184 35 -248 99 l-39 39 0 -110 0 -110 -72 0 -73 0 -122 -122 -123 -123 -75 75 -75 75 -100 -100 -100 -100 -118 118 c-64 64 -122 117 -127 117 -5 0 -41 -32 -80 -70 l-71 -70 -44 45 -44 45 -95 0 -95 0 -66 -65 -65 -64 -75 69 c-41 38 -78 69 -82 70 -5 0 -8 -81 -8 -180 l0 -180 45 0 c25 0 45 -3 45 -7 -1 -7 -450 -298 -490 -317 -14 -6 -71 26 -257 145 -131 83 -245 158 -253 166 -12 11 -6 13 38 13 l52 0 0 167 0 167 -28 -27 c-31 -30 -73 -35 -92 -12 -10 12 -38 15 -135 15 l-123 0 -131 -161 c-166 -204 -165 -196 -43 -307 84 -77 92 -82 177 -106 603 -171 1310 -146 1976 70 201 65 344 123 587 238 298 141 510 202 789 227 391 34 885 -63 1310 -257 78 -35 92 -34 93 7 0 41 36 114 81 163 68 74 148 110 249 110 66 1 85 -4 142 -32 129 -63 193 -172 186 -317 -4 -95 -30 -158 -94 -221 l-42 -42 87 -58 c47 -31 123 -84 168 -116 46 -33 87 -57 92 -54 14 9 68 166 85 247 21 108 29 279 17 399 -48 490 -420 919 -907 1045 -73 19 -309 50 -334 44 -3 -1 -42 -5 -88 -10z"/>
 </g>
<g id="layer102" fill="#dfca1e" stroke="none">
 <path d="M5030 1094 c0 -6 7 -19 16 -30 14 -18 14 -18 3 6 -14 31 -19 36 -19 24z"/>
 <path d="M190 1017 c0 -2 6 -10 14 -16 11 -9 16 -9 22 1 4 7 4 10 -1 6 -4 -4 -14 -3 -22 3 -7 6 -13 9 -13 6z"/>
 <path d="M5085 1000 c3 -5 8 -10 11 -10 3 0 2 5 -1 10 -3 6 -8 10 -11 10 -3 0 -2 -4 1 -10z"/>
 <path d="M5125 960 c3 -5 8 -10 11 -10 3 0 2 5 -1 10 -3 6 -8 10 -11 10 -3 0 -2 -4 1 -10z"/>
 <path d="M280 936 c0 -2 8 -10 18 -17 15 -13 16 -12 3 4 -13 16 -21 21 -21 13z"/>
 <path d="M5523 933 c4 -3 10 -3 14 0 3 4 0 7 -7 7 -7 0 -10 -3 -7 -7z"/>
 <path d="M5463 903 c4 -3 10 -3 14 0 3 4 0 7 -7 7 -7 0 -10 -3 -7 -7z"/>
 <path d="M813 893 c4 -3 10 -3 14 0 3 4 0 7 -7 7 -7 0 -10 -3 -7 -7z"/>
 <path d="M958 883 c6 -2 18 -2 25 0 6 3 1 5 -13 5 -14 0 -19 -2 -12 -5z"/>
 <path d="M5393 883 c4 -3 10 -3 14 0 3 4 0 7 -7 7 -7 0 -10 -3 -7 -7z"/>
 <path d="M370 856 c0 -2 8 -10 18 -17 15 -13 16 -12 3 4 -13 16 -21 21 -21 13z"/>
 <path d="M3603 743 c4 -3 10 -3 14 0 3 4 0 7 -7 7 -7 0 -10 -3 -7 -7z"/>
 <path d="M3680 670 c6 -11 13 -20 16 -20 2 0 0 9 -6 20 -6 11 -13 20 -16 20 -2 0 0 -9 6 -20z"/>
 <path d="M5834 618 c-4 -7 -3 -8 4 -4 12 7 16 16 8 16 -3 0 -8 -5 -12 -12z"/>
 <path d="M3107 599 c7 -7 15 -10 18 -7 3 3 -2 9 -12 12 -14 6 -15 5 -6 -5z"/>
 <path d="M3280 600 c-9 -6 -10 -10 -3 -10 6 0 15 5 18 10 8 12 4 12 -15 0z"/>
 <path d="M3725 590 c3 -5 8 -10 11 -10 3 0 2 5 -1 10 -3 6 -8 10 -11 10 -3 0 -2 -4 1 -10z"/>
 <path d="M5804 568 c-4 -7 -3 -8 4 -4 12 7 16 16 8 16 -3 0 -8 -5 -12 -12z"/>
 <path d="M5784 538 c-4 -7 -3 -8 4 -4 12 7 16 16 8 16 -3 0 -8 -5 -12 -12z"/>
 <path d="M3780 506 c0 -2 8 -10 18 -17 15 -13 16 -12 3 4 -13 16 -21 21 -21 13z"/>
 <path d="M5729 463 c-13 -16 -12 -17 4 -4 9 7 17 15 17 17 0 8 -8 3 -21 -13z"/>
 <path d="M3835 440 c3 -5 8 -10 11 -10 3 0 2 5 -1 10 -3 6 -8 10 -11 10 -3 0 -2 -4 1 -10z"/>
 <path d="M5634 358 l-29 -33 33 29 c17 17 32 31 32 33 0 8 -8 1 -36 -29z"/>
 <path d="M3980 296 c0 -2 8 -10 18 -17 15 -13 16 -12 3 4 -13 16 -21 21 -21 13z"/>
 <path d="M5494 238 c-4 -7 -3 -8 4 -4 7 4 12 9 12 12 0 8 -9 4 -16 -8z"/>
 <path d="M5454 208 c-4 -7 -3 -8 4 -4 7 4 12 9 12 12 0 8 -9 4 -16 -8z"/>
 <path d="M4135 180 c3 -5 8 -10 11 -10 3 0 2 5 -1 10 -3 6 -8 10 -11 10 -3 0 -2 -4 1 -10z"/>
 <path d="M5364 154 c-18 -14 -18 -15 4 -4 12 6 22 13 22 15 0 8 -5 6 -26 -11z"/>
 <path d="M4180 155 c0 -7 81 -47 86 -43 2 3 -17 14 -41 26 -25 12 -45 20 -45 17z"/>
 <path d="M5263 103 c4 -3 10 -3 14 0 3 4 0 7 -7 7 -7 0 -10 -3 -7 -7z"/>
 <path d="M4323 83 c4 -3 10 -3 14 0 3 4 0 7 -7 7 -7 0 -10 -3 -7 -7z"/>
 <path d="M5213 83 c4 -3 10 -3 14 0 3 4 0 7 -7 7 -7 0 -10 -3 -7 -7z"/>
 <path d="M4948 13 c6 -2 18 -2 25 0 6 3 1 5 -13 5 -14 0 -19 -2 -12 -5z"/>
 <path d="M4713 3 c4 -3 10 -3 14 0 3 4 0 7 -7 7 -7 0 -10 -3 -7 -7z"/>
 <path d="M4828 3 c7 -3 16 -2 19 1 4 3 -2 6 -13 5 -11 0 -14 -3 -6 -6z"/>
 </g>
<g id="layer103" fill="#fed100" stroke="none">
 <path d="M3585 1530 c-218 -23 -474 -93 -665 -183 -52 -24 -138 -65 -190 -89 -776 -367 -1625 -469 -2370 -286 -137 33 -150 36 -150 33 0 -2 44 -42 97 -89 l97 -86 1338 0 1338 0 0 -108 0 -107 59 -24 c51 -20 64 -22 93 -12 48 16 117 62 123 82 25 79 127 120 232 94 32 -7 113 -83 113 -105 0 -28 151 -231 220 -295 93 -88 135 -125 142 -125 4 0 28 -14 53 -31 25 -17 83 -49 128 -70 45 -22 89 -44 97 -48 9 -5 31 -12 50 -16 19 -4 40 -11 46 -16 6 -5 46 -14 90 -20 43 -6 84 -15 89 -19 13 -10 307 -10 320 0 6 5 37 11 70 15 57 7 136 29 200 55 17 7 39 16 50 20 51 19 171 83 195 105 9 8 19 15 22 15 20 0 308 283 308 302 0 5 10 24 23 41 29 42 43 65 62 106 21 43 35 29 -173 171 -152 105 -144 101 -188 80 -52 -24 -89 -33 -149 -35 -51 -2 -156 25 -182 47 -9 7 -25 17 -36 23 -28 14 -96 103 -103 135 -3 14 -9 33 -15 42 -5 10 -9 38 -9 62 l0 44 -102 45 c-253 110 -529 191 -773 228 -151 23 -421 32 -550 19z"/>
 <path d="M5992 1340 c0 -19 2 -27 5 -17 2 9 2 25 0 35 -3 9 -5 1 -5 -18z"/>
 <path d="M5993 1105 c0 -22 2 -30 4 -17 2 12 2 30 0 40 -3 9 -5 -1 -4 -23z"/>
 </g>

</svg>