<!DOCTYPE svg PUBLIC "-//W3C//DTD SVG 20010904//EN" "http://www.w3.org/TR/2001/REC-SVG-20010904/DTD/svg10.dtd">
<svg version="1.0" xmlns="http://www.w3.org/2000/svg" width="1200px" height="1000px" viewBox="0 0 12000 10000" preserveAspectRatio="xMidYMid meet">
<g id="layer101" fill="#010101" stroke="none">
 <path d="M0 5000 l0 -5000 6000 0 6000 0 0 5000 0 5000 -6000 0 -6000 0 0 -5000z"/>
 </g>
<g id="layer102" fill="#632285" stroke="none">
 <path d="M0 5000 l0 -5000 6000 0 6000 0 0 5000 0 5000 -6000 0 -6000 0 0 -5000z m6250 4550 c621 -40 1206 -194 1741 -460 197 -98 288 -150 467 -267 771 -503 1384 -1239 1729 -2076 229 -558 343 -1137 343 -1747 0 -610 -114 -1189 -343 -1747 -347 -842 -962 -1578 -1742 -2085 -811 -527 -1778 -778 -2758 -716 -797 51 -1566 312 -2232 757 -252 169 -446 330 -686 570 -257 258 -409 443 -595 726 -1049 1598 -978 3720 176 5240 140 185 226 282 419 476 301 301 551 497 911 712 143 86 455 239 615 302 622 246 1304 356 1955 315z"/>
 <path d="M5560 9395 c-539 -54 -1025 -194 -1515 -435 -447 -220 -820 -486 -1169 -836 -876 -875 -1341 -2055 -1295 -3285 8 -199 14 -268 40 -459 181 -1306 957 -2475 2099 -3165 510 -307 1091 -511 1690 -590 190 -25 281 -30 595 -30 324 0 434 9 713 56 1390 232 2599 1139 3222 2414 231 473 367 948 427 1490 21 187 23 663 5 845 -60 584 -208 1094 -462 1595 -617 1215 -1767 2084 -3098 2340 -293 56 -413 67 -777 70 -235 2 -382 -1 -475 -10z"/>
 </g>
<g id="layer103" fill="#a9b900" stroke="none">
 <path d="M0 5000 l0 -5000 6000 0 6000 0 0 5000 0 5000 -6000 0 -6000 0 0 -5000z m6250 4550 c621 -40 1206 -194 1741 -460 197 -98 288 -150 467 -267 771 -503 1384 -1239 1729 -2076 229 -558 343 -1137 343 -1747 0 -610 -114 -1189 -343 -1747 -347 -842 -962 -1578 -1742 -2085 -811 -527 -1778 -778 -2758 -716 -797 51 -1566 312 -2232 757 -252 169 -446 330 -686 570 -257 258 -409 443 -595 726 -1049 1598 -978 3720 176 5240 140 185 226 282 419 476 301 301 551 497 911 712 143 86 455 239 615 302 622 246 1304 356 1955 315z"/>
 <path d="M5560 9395 c-539 -54 -1025 -194 -1515 -435 -447 -220 -820 -486 -1169 -836 -876 -875 -1341 -2055 -1295 -3285 8 -199 14 -268 40 -459 181 -1306 957 -2475 2099 -3165 510 -307 1091 -511 1690 -590 190 -25 281 -30 595 -30 324 0 434 9 713 56 1390 232 2599 1139 3222 2414 231 473 367 948 427 1490 21 187 23 663 5 845 -60 584 -208 1094 -462 1595 -617 1215 -1767 2084 -3098 2340 -293 56 -413 67 -777 70 -235 2 -382 -1 -475 -10z m-1969 -2609 c589 -136 1053 -677 1173 -1368 46 -260 40 -521 -15 -793 -106 -513 -445 -976 -864 -1181 -203 -99 -369 -137 -586 -136 -403 1 -787 194 -1062 534 -99 122 -147 198 -217 343 -98 199 -152 382 -185 620 -18 132 -13 466 10 590 78 429 250 766 532 1036 202 193 472 333 713 368 41 6 86 13 100 15 67 12 299 -4 401 -28z"/>
 <path d="M3222 6244 c-166 -35 -319 -176 -434 -400 -122 -238 -175 -506 -165 -844 9 -344 83 -612 232 -835 243 -365 600 -391 860 -63 324 408 378 1212 117 1733 -153 306 -379 458 -610 409z"/>
 </g>
<g id="layer104" fill="#fe7701" stroke="none">
 <path d="M0 5000 l0 -5000 6000 0 6000 0 0 5000 0 5000 -6000 0 -6000 0 0 -5000z m6250 4550 c621 -40 1206 -194 1741 -460 197 -98 288 -150 467 -267 771 -503 1384 -1239 1729 -2076 229 -558 343 -1137 343 -1747 0 -610 -114 -1189 -343 -1747 -347 -842 -962 -1578 -1742 -2085 -811 -527 -1778 -778 -2758 -716 -797 51 -1566 312 -2232 757 -252 169 -446 330 -686 570 -257 258 -409 443 -595 726 -1049 1598 -978 3720 176 5240 140 185 226 282 419 476 301 301 551 497 911 712 143 86 455 239 615 302 622 246 1304 356 1955 315z"/>
 <path d="M5560 9395 c-539 -54 -1025 -194 -1515 -435 -447 -220 -820 -486 -1169 -836 -876 -875 -1341 -2055 -1295 -3285 8 -199 14 -268 40 -459 181 -1306 957 -2475 2099 -3165 510 -307 1091 -511 1690 -590 190 -25 281 -30 595 -30 324 0 434 9 713 56 1390 232 2599 1139 3222 2414 231 473 367 948 427 1490 21 187 23 663 5 845 -60 584 -208 1094 -462 1595 -617 1215 -1767 2084 -3098 2340 -293 56 -413 67 -777 70 -235 2 -382 -1 -475 -10z m-1969 -2609 c589 -136 1053 -677 1173 -1368 46 -260 40 -521 -15 -793 -106 -513 -445 -976 -864 -1181 -203 -99 -369 -137 -586 -136 -403 1 -787 194 -1062 534 -99 122 -147 198 -217 343 -98 199 -152 382 -185 620 -18 132 -13 466 10 590 78 429 250 766 532 1036 202 193 472 333 713 368 41 6 86 13 100 15 67 12 299 -4 401 -28z m2494 -1020 c394 -3 660 -8 676 -14 38 -15 76 -66 94 -124 21 -70 33 -498 16 -550 -17 -53 -69 -94 -133 -107 -29 -6 -208 -13 -398 -16 -190 -3 -363 -10 -385 -16 -64 -17 -115 -55 -136 -104 -22 -49 -25 -155 -34 -1205 -3 -319 -9 -578 -15 -610 -15 -79 -55 -137 -115 -169 -50 -26 -51 -26 -285 -26 -224 0 -237 1 -285 23 -27 13 -60 32 -72 43 -37 36 -65 117 -67 194 -1 82 13 949 19 1175 2 85 7 335 10 555 10 691 10 689 70 791 52 89 233 179 340 169 28 -3 343 -7 700 -9z"/>
 <path d="M3222 6244 c-166 -35 -319 -176 -434 -400 -122 -238 -175 -506 -165 -844 9 -344 83 -612 232 -835 243 -365 600 -391 860 -63 324 408 378 1212 117 1733 -153 306 -379 458 -610 409z"/>
 </g>
<g id="layer105" fill="#ffffff" stroke="none">
 <path d="M0 5000 l0 -5000 6000 0 6000 0 0 5000 0 5000 -6000 0 -6000 0 0 -5000z m6250 4550 c621 -40 1206 -194 1741 -460 197 -98 288 -150 467 -267 771 -503 1384 -1239 1729 -2076 229 -558 343 -1137 343 -1747 0 -610 -114 -1189 -343 -1747 -347 -842 -962 -1578 -1742 -2085 -811 -527 -1778 -778 -2758 -716 -797 51 -1566 312 -2232 757 -252 169 -446 330 -686 570 -257 258 -409 443 -595 726 -1049 1598 -978 3720 176 5240 140 185 226 282 419 476 301 301 551 497 911 712 143 86 455 239 615 302 622 246 1304 356 1955 315z"/>
 <path d="M5560 9395 c-539 -54 -1025 -194 -1515 -435 -447 -220 -820 -486 -1169 -836 -876 -875 -1341 -2055 -1295 -3285 8 -199 14 -268 40 -459 181 -1306 957 -2475 2099 -3165 510 -307 1091 -511 1690 -590 190 -25 281 -30 595 -30 324 0 434 9 713 56 1390 232 2599 1139 3222 2414 231 473 367 948 427 1490 21 187 23 663 5 845 -60 584 -208 1094 -462 1595 -617 1215 -1767 2084 -3098 2340 -293 56 -413 67 -777 70 -235 2 -382 -1 -475 -10z m3818 -2446 c163 -44 313 -89 333 -100 49 -24 94 -81 109 -135 27 -96 36 -80 -583 -1010 -312 -468 -567 -857 -567 -863 0 -7 42 -74 93 -149 479 -702 775 -1146 794 -1192 42 -102 22 -209 -48 -263 -94 -71 -242 -56 -389 38 -55 35 -125 111 -460 498 -217 251 -398 455 -402 454 -4 -1 -128 -184 -276 -407 -272 -411 -316 -466 -402 -510 -108 -54 -240 -68 -338 -36 -97 33 -177 128 -197 237 -14 76 9 135 210 544 109 220 228 464 266 542 37 78 88 182 113 231 l45 90 -441 498 c-242 275 -453 519 -470 544 -49 77 -71 168 -66 274 3 53 13 110 24 136 17 42 234 396 276 450 40 51 97 80 158 80 89 0 129 -32 241 -198 51 -75 172 -254 269 -397 97 -143 227 -336 290 -428 62 -92 117 -164 121 -160 4 4 46 78 92 163 245 451 504 928 517 954 40 78 132 153 223 181 90 29 151 20 465 -66z m-5787 -163 c589 -136 1053 -677 1173 -1368 46 -260 40 -521 -15 -793 -106 -513 -445 -976 -864 -1181 -203 -99 -369 -137 -586 -136 -403 1 -787 194 -1062 534 -99 122 -147 198 -217 343 -98 199 -152 382 -185 620 -18 132 -13 466 10 590 78 429 250 766 532 1036 202 193 472 333 713 368 41 6 86 13 100 15 67 12 299 -4 401 -28z m2494 -1020 c394 -3 660 -8 676 -14 38 -15 76 -66 94 -124 21 -70 33 -498 16 -550 -17 -53 -69 -94 -133 -107 -29 -6 -208 -13 -398 -16 -190 -3 -363 -10 -385 -16 -64 -17 -115 -55 -136 -104 -22 -49 -25 -155 -34 -1205 -3 -319 -9 -578 -15 -610 -15 -79 -55 -137 -115 -169 -50 -26 -51 -26 -285 -26 -224 0 -237 1 -285 23 -27 13 -60 32 -72 43 -37 36 -65 117 -67 194 -1 82 13 949 19 1175 2 85 7 335 10 555 10 691 10 689 70 791 52 89 233 179 340 169 28 -3 343 -7 700 -9z"/>
 <path d="M3222 6244 c-166 -35 -319 -176 -434 -400 -122 -238 -175 -506 -165 -844 9 -344 83 -612 232 -835 243 -365 600 -391 860 -63 324 408 378 1212 117 1733 -153 306 -379 458 -610 409z"/>
 </g>

</svg>