<svg xmlns="http://www.w3.org/2000/svg" version="1.0" width="12000" height="10000" preserveAspectRatio="xMidYMid meet" style=""><rect id="backgroundrect" width="100%" height="100%" x="0" y="0" fill="none" stroke="none"/>





<g class="currentLayer" style=""><title>Layer 1</title><g id="layer102" fill="#01d28e" stroke="none" class="" fill-opacity="1">
 <path d="M3190 6814 c-14 -2 -59 -9 -100 -15 -241 -35 -511 -175 -713 -368 -282 -270 -454 -607 -532 -1036 -23 -124 -28 -458 -10 -590 33 -238 87 -421 185 -620 135 -278 315 -489 547 -645 235 -158 466 -231 732 -232 376 -2 713 148 997 444 318 332 498 803 497 1308 0 346 -65 621 -219 920 -217 421 -570 711 -983 806 -102 24 -334 40 -401 28z m257 -585 c213 -73 404 -339 492 -687 194 -758 -114 -1624 -594 -1669 -263 -24 -515 218 -643 618 -54 168 -74 295 -79 509 -10 338 43 606 165 844 168 327 412 470 659 385z" id="svg_2" fill="#01d28e" fill-opacity="1"/>
 </g><g fill="#0081cc" stroke="none" class="selected" fill-opacity="1" id="svg_1">
 <path d="M3190 6814 c-14 -2 -59 -9 -100 -15 -241 -35 -511 -175 -713 -368 -282 -270 -454 -607 -532 -1036 -23 -124 -28 -458 -10 -590 33 -238 87 -421 185 -620 135 -278 315 -489 547 -645 235 -158 466 -231 732 -232 376 -2 713 148 997 444 318 332 498 803 497 1308 0 346 -65 621 -219 920 -217 421 -570 711 -983 806 -102 24 -334 40 -401 28z m257 -585 c213 -73 404 -339 492 -687 194 -758 -114 -1624 -594 -1669 -263 -24 -515 218 -643 618 -54 168 -74 295 -79 509 -10 338 43 606 165 844 168 327 412 470 659 385z" id="svg_8" fill="#0081cc" fill-opacity="1"/>
 </g><g id="layer103" fill="#1aeb1a" stroke="none" class="" fill-opacity="1">
 <path d="M5253 5751 c-136 -47 -206 -112 -248 -230 -18 -51 -21 -143 -30 -706 -3 -220 -8 -470 -10 -555 -6 -226 -20 -1093 -19 -1175 2 -77 30 -158 67 -194 12 -11 45 -30 72 -43 48 -22 61 -23 285 -23 234 0 235 0 285 26 60 32 100 90 115 169 6 32 12 291 15 610 9 1050 12 1156 34 1205 21 49 72 87 136 104 22 6 195 13 385 16 190 3 369 10 398 16 64 13 116 54 133 107 17 52 5 480 -16 550 -18 58 -56 109 -94 124 -16 6 -282 11 -676 14 -357 2 -672 6 -700 9 -38 3 -70 -2 -132 -24z" id="svg_3" fill="#1aeb1a" fill-opacity="1"/>
 </g><g fill="#0081cc" stroke="none" class="selected" fill-opacity="1" id="svg_5">
 <path d="M5253 5751 c-136 -47 -206 -112 -248 -230 -18 -51 -21 -143 -30 -706 -3 -220 -8 -470 -10 -555 -6 -226 -20 -1093 -19 -1175 2 -77 30 -158 67 -194 12 -11 45 -30 72 -43 48 -22 61 -23 285 -23 234 0 235 0 285 26 60 32 100 90 115 169 6 32 12 291 15 610 9 1050 12 1156 34 1205 21 49 72 87 136 104 22 6 195 13 385 16 190 3 369 10 398 16 64 13 116 54 133 107 17 52 5 480 -16 550 -18 58 -56 109 -94 124 -16 6 -282 11 -676 14 -357 2 -672 6 -700 9 -38 3 -70 -2 -132 -24z" id="svg_7" fill="#0081cc" fill-opacity="1"/>
 </g><g fill="#1aeb1a" stroke="none" class="" fill-opacity="1" id="svg_9">
 <path d="M8913 7015 c-91 -28 -183 -103 -223 -181 -13 -26 -272 -503 -517 -954 -46 -85 -88 -159 -92 -163 -4 -4 -59 68 -121 160 -63 92 -193 285 -290 428 -97 143 -218 322 -269 397 -112 166 -152 198 -241 198 -61 0 -118 -29 -158 -80 -42 -54 -259 -408 -276 -450 -11 -26 -21 -83 -24 -136 -5 -106 17 -197 66 -274 17 -25 228 -269 470 -544 l441 -498 -45 -90 c-25 -49 -76 -153 -113 -231 -38 -78 -157 -322 -266 -542 -201 -409 -224 -468 -210 -544 20 -109 100 -204 197 -237 98 -32 230 -18 338 36 86 44 130 99 402 510 148 223 272 406 276 407 4 1 185 -203 402 -454 335 -387 405 -463 460 -498 147 -94 295 -109 389 -38 70 54 90 161 48 263 -19 46 -315 490 -794 1192 -51 75 -93 142 -93 149 0 6 255 395 567 863 619 930 610 914 583 1010 -15 54 -60 111 -109 135 -20 11 -170 56 -333 100 -314 86 -375 95 -465 66z" id="svg_11" fill="#1aeb1a" fill-opacity="1"/>
 </g><g id="layer104" fill="#0081cc" stroke="none" class="selected" fill-opacity="1">
 <path d="M8913 7015 c-91 -28 -183 -103 -223 -181 -13 -26 -272 -503 -517 -954 -46 -85 -88 -159 -92 -163 -4 -4 -59 68 -121 160 -63 92 -193 285 -290 428 -97 143 -218 322 -269 397 -112 166 -152 198 -241 198 -61 0 -118 -29 -158 -80 -42 -54 -259 -408 -276 -450 -11 -26 -21 -83 -24 -136 -5 -106 17 -197 66 -274 17 -25 228 -269 470 -544 l441 -498 -45 -90 c-25 -49 -76 -153 -113 -231 -38 -78 -157 -322 -266 -542 -201 -409 -224 -468 -210 -544 20 -109 100 -204 197 -237 98 -32 230 -18 338 36 86 44 130 99 402 510 148 223 272 406 276 407 4 1 185 -203 402 -454 335 -387 405 -463 460 -498 147 -94 295 -109 389 -38 70 54 90 161 48 263 -19 46 -315 490 -794 1192 -51 75 -93 142 -93 149 0 6 255 395 567 863 619 930 610 914 583 1010 -15 54 -60 111 -109 135 -20 11 -170 56 -333 100 -314 86 -375 95 -465 66z" id="svg_4" fill="#0081cc" fill-opacity="1"/>
 </g></g></svg>