<!DOCTYPE svg PUBLIC "-//W3C//DTD SVG 20010904//EN" "http://www.w3.org/TR/2001/REC-SVG-20010904/DTD/svg10.dtd">
<svg version="1.0" xmlns="http://www.w3.org/2000/svg" width="549px" height="401px" viewBox="0 0 5490 4010" preserveAspectRatio="xMidYMid meet">
<g id="layer101" fill="#0f2226" stroke="none">
 <path d="M115 3767 c-13 -21 -15 -223 -13 -1813 l3 -1789 1831 0 c1541 0 1834 2 1848 14 15 12 16 67 14 655 l-3 641 -39 3 c-22 2 -50 1 -63 -2 l-23 -6 0 -585 0 -585 -22 -5 c-13 -3 -590 -4 -1284 -3 l-1261 3 -234 220 c-129 121 -327 307 -442 414 l-207 193 2 1266 3 1267 1723 3 1722 2 0 -580 0 -580 65 0 65 0 0 623 c0 547 -2 625 -16 645 l-15 22 -1819 0 -1820 0 -15 -23z"/>
 <path d="M4563 3756 c-38 -17 -53 -43 -53 -90 0 -31 10 -47 73 -114 201 -212 327 -400 441 -659 249 -561 247 -1236 -5 -1805 -104 -236 -243 -443 -436 -651 -65 -69 -73 -82 -73 -117 0 -30 6 -43 31 -64 47 -40 89 -35 145 16 122 112 300 345 407 533 66 116 159 332 200 465 134 432 142 930 22 1380 -98 369 -344 791 -612 1052 -65 63 -93 74 -140 54z"/>
 <path d="M381 3494 c-21 -27 -21 -28 -21 -1188 0 -903 3 -1166 13 -1183 6 -12 57 -61 112 -110 316 -279 422 -372 464 -408 25 -22 77 -68 116 -102 l69 -63 1188 0 1188 0 15 23 c13 21 15 88 13 518 l-3 494 -50 1 c-94 1 -85 51 -85 -462 l0 -454 -1104 0 -1104 0 -99 88 c-55 48 -213 186 -351 306 l-252 220 0 1113 0 1113 1455 0 1455 0 0 -450 0 -450 70 0 71 0 -3 496 c-3 477 -4 496 -22 510 -17 12 -247 14 -1567 14 l-1548 0 -20 -26z"/>
 <path d="M4302 3463 c-20 -8 -39 -56 -33 -80 3 -13 36 -55 72 -95 149 -165 242 -301 329 -482 136 -284 187 -534 177 -869 -6 -214 -29 -355 -87 -529 -88 -263 -225 -494 -416 -699 -66 -70 -74 -83 -74 -118 0 -48 26 -71 80 -71 31 0 44 9 109 77 261 274 455 653 522 1023 15 80 23 176 26 317 6 213 -2 320 -38 494 -70 346 -257 697 -512 965 -62 66 -73 74 -106 73 -20 0 -42 -3 -49 -6z"/>
 <path d="M647 3291 c-6 -2 -20 -10 -29 -19 -17 -14 -18 -76 -18 -1025 0 -846 2 -1012 14 -1021 7 -6 101 -86 207 -177 107 -92 253 -217 324 -278 l130 -111 991 0 c776 0 994 3 1007 13 16 11 17 48 20 405 1 215 0 392 -3 393 -25 4 -103 4 -110 -1 -6 -4 -11 -142 -12 -344 l-3 -337 -924 0 c-774 1 -927 3 -940 15 -26 23 -264 228 -423 365 l-148 126 0 936 c0 845 2 937 16 943 20 8 2388 8 2408 0 14 -5 16 -45 16 -340 l0 -334 60 0 60 0 0 384 c0 311 -3 386 -14 395 -10 8 -365 12 -1315 14 -715 1 -1307 0 -1314 -2z"/>
 <path d="M4055 3218 c-58 -33 -49 -68 46 -173 265 -295 402 -651 402 -1045 1 -412 -143 -780 -420 -1072 -68 -72 -80 -109 -45 -141 38 -35 74 -22 144 50 227 237 385 557 438 888 16 97 19 155 15 305 -5 205 -7 227 -37 350 -67 277 -205 541 -390 746 -65 73 -104 105 -126 104 -4 0 -16 -6 -27 -12z"/>
 <path d="M902 3040 c-12 -5 -27 -21 -32 -35 -6 -17 -10 -321 -10 -815 l0 -790 28 -29 c41 -45 494 -432 514 -440 9 -3 377 -4 818 -1 697 4 802 7 810 20 6 9 9 120 7 270 l-2 255 -60 0 -60 0 -5 -215 -5 -215 -722 -3 -722 -2 -68 58 c-37 32 -143 122 -235 201 l-168 143 0 739 0 739 960 0 960 0 0 -210 0 -210 65 0 65 0 0 250 0 251 -25 24 -24 25 -1033 -1 c-595 0 -1043 -4 -1056 -9z"/>
 <path d="M1645 2407 c-3 -6 -4 -197 -3 -422 l3 -410 205 0 c170 0 214 3 255 18 136 47 202 177 162 318 -19 64 -78 131 -131 149 -20 6 -36 15 -36 18 0 4 57 79 125 167 69 88 125 163 125 168 0 4 -60 7 -134 7 l-134 0 -106 -162 -106 -163 0 163 0 162 -110 0 c-79 0 -112 -4 -115 -13z m345 -472 c37 -19 50 -43 50 -93 0 -47 -30 -80 -87 -93 -85 -19 -83 -22 -83 96 l0 105 45 0 c26 0 59 -7 75 -15z"/>
 <path d="M2420 1995 l0 -425 245 0 245 0 0 95 0 95 -135 0 -135 0 0 70 0 70 120 0 120 0 0 96 0 95 -97 -1 c-54 -1 -108 -1 -120 -1 -22 1 -23 3 -25 164 l-3 162 -107 3 -108 3 0 -426z"/>
 <path d="M3035 2408 c-3 -7 -4 -198 -3 -423 l3 -410 110 0 110 0 0 420 0 420 -108 3 c-80 2 -109 -1 -112 -10z"/>
 <path d="M3407 2413 c-4 -3 -7 -195 -7 -425 l0 -418 175 0 c95 0 198 5 227 11 130 27 253 121 309 234 57 116 50 278 -16 391 -61 104 -179 184 -300 204 -67 11 -378 14 -388 3z m399 -214 c34 -18 58 -39 79 -74 27 -44 30 -56 30 -129 -1 -89 -13 -123 -62 -167 -45 -42 -89 -60 -165 -66 -65 -6 -71 -5 -65 11 4 10 7 117 7 238 l0 220 64 -4 c41 -2 80 -12 112 -29z"/>
 </g>

</svg>