<svg xmlns="http://www.w3.org/2000/svg" version="1.0" width="4590" height="6430" preserveAspectRatio="xMidYMid meet"><rect id="backgroundrect" width="100%" height="100%" x="0" y="0" fill="none" stroke="none"/>


<g class="currentLayer" style=""><title>Layer 1</title><g id="layer101" fill="#000000" stroke="none" class="selected" fill-opacity="1">
 <path d="M164 6166 c-17 -7 -42 -29 -55 -47 l-24 -34 -3 -598 c-3 -666 -5 -639 65 -687 l37 -25 305 0 306 0 79 29 c105 39 187 114 242 222 39 77 39 78 39 194 0 116 0 117 -39 193 -41 82 -117 164 -180 194 -20 9 -35 22 -34 28 2 5 49 87 104 180 56 94 105 184 109 202 9 45 -24 117 -67 143 -42 25 -103 26 -144 1 -20 -12 -53 -55 -90 -118 -32 -54 -89 -150 -127 -213 -39 -63 -77 -127 -86 -142 -16 -28 -17 -28 -123 -28 l-107 0 -3 208 c-3 225 -7 243 -65 286 -33 24 -100 30 -139 12z m632 -807 c98 -47 111 -182 26 -262 -42 -40 -82 -46 -279 -47 l-173 0 0 165 0 165 192 0 c173 0 196 -2 234 -21z" id="svg_1" fill="#000000" fill-opacity="1"/>
 <path d="M1495 6165 c-16 -9 -41 -32 -55 -52 l-25 -37 0 -600 c0 -581 1 -602 20 -634 11 -18 38 -41 60 -52 39 -19 63 -20 390 -20 332 0 351 1 391 21 32 15 48 32 64 65 28 57 21 103 -25 152 l-33 37 -294 5 -293 5 0 140 0 140 272 5 c271 5 271 5 297 29 77 72 46 213 -52 241 -21 5 -145 10 -279 10 l-243 0 0 236 c0 225 -1 237 -21 266 -38 53 -115 72 -174 43z" id="svg_2" fill="#000000" fill-opacity="1"/>
 <path d="M2649 6157 c-71 -47 -69 -25 -69 -680 0 -641 -1 -634 57 -675 68 -48 154 -32 200 37 l23 34 0 601 c0 582 -1 602 -20 634 -43 70 -128 92 -191 49z" id="svg_3" fill="#000000" fill-opacity="1"/>
 <path d="M3200 6158 c-73 -49 -71 -22 -68 -693 3 -582 4 -601 23 -627 45 -59 47 -60 384 -58 290 1 314 2 392 24 448 123 653 632 418 1034 -43 72 -168 197 -242 241 -31 18 -96 47 -144 65 l-88 31 -320 3 -320 3 -35 -23z m608 -268 c94 -16 165 -51 231 -117 99 -100 138 -220 119 -367 -16 -123 -112 -247 -236 -308 l-67 -33 -217 -3 -218 -3 0 420 0 421 163 0 c89 0 190 -5 225 -10z" id="svg_4" fill="#000000" fill-opacity="1"/>
 <path d="M625 4146 c-119 -39 -223 -122 -277 -223 -15 -26 -34 -85 -43 -131 -19 -93 -12 -166 27 -269 27 -74 138 -187 222 -227 246 -118 546 13 626 272 37 120 20 266 -43 374 -38 65 -128 145 -204 181 -60 28 -80 32 -168 34 -63 2 -115 -2 -140 -11z" id="svg_5" fill="#000000" fill-opacity="1"/>
 <path d="M2033 3935 c-54 -23 -66 -54 -80 -204 -7 -74 -24 -182 -39 -240 -104 -418 -423 -770 -830 -914 -131 -46 -222 -64 -364 -73 -125 -7 -162 -21 -196 -72 -23 -35 -23 -111 0 -146 32 -50 72 -66 168 -66 230 0 522 81 733 202 493 285 800 793 809 1341 1 74 -3 98 -17 120 -39 61 -115 82 -184 52z" id="svg_6" fill="#000000" fill-opacity="1"/>
 <path d="M3064 3936 c-17 -8 -41 -28 -54 -46 -21 -29 -24 -49 -31 -189 -32 -614 -283 -1162 -727 -1586 -45 -43 -94 -88 -109 -99 -14 -12 -41 -33 -58 -48 -67 -57 -260 -179 -383 -241 -316 -161 -700 -257 -1025 -257 -38 0 -78 -5 -90 -11 -100 -52 -113 -176 -25 -239 39 -29 46 -30 142 -30 190 0 468 44 681 107 899 267 1583 985 1805 1895 49 200 67 340 69 523 1 125 -1 144 -19 173 -34 55 -111 76 -176 48z" id="svg_7" fill="#000000" fill-opacity="1"/>
 <path d="M4075 3932 c-68 -43 -68 -43 -82 -285 -14 -249 -30 -364 -79 -582 -300 -1334 -1414 -2370 -2762 -2570 -94 -14 -255 -29 -355 -35 -101 -5 -195 -13 -209 -19 -35 -13 -76 -65 -84 -105 -9 -49 25 -119 68 -143 28 -15 54 -17 178 -15 80 1 161 4 180 7 19 2 69 7 110 10 276 23 659 119 961 240 675 272 1271 758 1676 1370 368 556 577 1202 600 1854 7 202 2 224 -54 265 -38 28 -111 32 -148 8z" id="svg_8" fill="#000000" fill-opacity="1"/>
 </g></g></svg>