<svg xmlns="http://www.w3.org/2000/svg" version="1.0" width="5298" height="3625" preserveAspectRatio="xMidYMid meet"><rect id="backgroundrect" width="100%" height="100%" x="0" y="0" fill="none" stroke="none"/>


<g class="currentLayer" style=""><title>Layer 1</title><g id="layer101" fill="#000000" stroke="none" class="" fill-opacity="1">
 <path d="M13.665992736816406,3602 c-13,-21 -15,-223 -13,-1813 l3,-1789 l1831,0 c1541,0 1834,2 1848,14 c15,12 16,67 14,655 l-3,641 l-39,3 c-22,2 -50,1 -63,-2 l-23,-6 l0,-585 l0,-585 l-22,-5 c-13,-3 -590,-4 -1284,-3 l-1261,3 l-234,220 c-129,121 -327,307 -442,414 l-207,193 l2,1266 l3,1267 l1723,3 l1722,2 l0,-580 l0,-580 l65,0 l65,0 l0,623 c0,547 -2,625 -16,645 l-15,22 l-1819,0 l-1820,0 l-15,-23 z" id="svg_1" fill="#000000" fill-opacity="1"/>
 <path d="M4461.665992736816,3591 c-38,-17 -53,-43 -53,-90 c0,-31 10,-47 73,-114 c201,-212 327,-400 441,-659 c249,-561 247,-1236 -5,-1805 c-104,-236 -243,-443 -436,-651 c-65,-69 -73,-82 -73,-117 c0,-30 6,-43 31,-64 c47,-40 89,-35 145,16 c122,112 300,345 407,533 c66,116 159,332 200,465 c134,432 142,930 22,1380 c-98,369 -344,791 -612,1052 c-65,63 -93,74 -140,54 z" id="svg_2" fill="#000000" fill-opacity="1"/>
 <path d="M279.6659927368164,3329 c-21,-27 -21,-28 -21,-1188 c0,-903 3,-1166 13,-1183 c6,-12 57,-61 112,-110 c316,-279 422,-372 464,-408 c25,-22 77,-68 116,-102 l69,-63 l1188,0 l1188,0 l15,23 c13,21 15,88 13,518 l-3,494 l-50,1 c-94,1 -85,51 -85,-462 l0,-454 l-1104,0 l-1104,0 l-99,88 c-55,48 -213,186 -351,306 l-252,220 l0,1113 l0,1113 l1455,0 l1455,0 l0,-450 l0,-450 l70,0 l71,0 l-3,496 c-3,477 -4,496 -22,510 c-17,12 -247,14 -1567,14 l-1548,0 l-20,-26 z" id="svg_3" fill="#000000" fill-opacity="1"/>
 <path d="M4200.665992736816,3298 c-20,-8 -39,-56 -33,-80 c3,-13 36,-55 72,-95 c149,-165 242,-301 329,-482 c136,-284 187,-534 177,-869 c-6,-214 -29,-355 -87,-529 c-88,-263 -225,-494 -416,-699 c-66,-70 -74,-83 -74,-118 c0,-48 26,-71 80,-71 c31,0 44,9 109,77 c261,274 455,653 522,1023 c15,80 23,176 26,317 c6,213 -2,320 -38,494 c-70,346 -257,697 -512,965 c-62,66 -73,74 -106,73 c-20,0 -42,-3 -49,-6 z" id="svg_4" fill="#000000" fill-opacity="1"/>
 <path d="M545.6659927368164,3126 c-6,-2 -20,-10 -29,-19 c-17,-14 -18,-76 -18,-1025 c0,-846 2,-1012 14,-1021 c7,-6 101,-86 207,-177 c107,-92 253,-217 324,-278 l130,-111 l991,0 c776,0 994,3 1007,13 c16,11 17,48 20,405 c1,215 0,392 -3,393 c-25,4 -103,4 -110,-1 c-6,-4 -11,-142 -12,-344 l-3,-337 l-924,0 c-774,1 -927,3 -940,15 c-26,23 -264,228 -423,365 l-148,126 l0,936 c0,845 2,937 16,943 c20,8 2388,8 2408,0 c14,-5 16,-45 16,-340 l0,-334 l60,0 l60,0 l0,384 c0,311 -3,386 -14,395 c-10,8 -365,12 -1315,14 c-715,1 -1307,0 -1314,-2 z" id="svg_5" fill="#000000" fill-opacity="1"/>
 <path d="M3953.6659927368164,3053 c-58,-33 -49,-68 46,-173 c265,-295 402,-651 402,-1045 c1,-412 -143,-780 -420,-1072 c-68,-72 -80,-109 -45,-141 c38,-35 74,-22 144,50 c227,237 385,557 438,888 c16,97 19,155 15,305 c-5,205 -7,227 -37,350 c-67,277 -205,541 -390,746 c-65,73 -104,105 -126,104 c-4,0 -16,-6 -27,-12 z" id="svg_6" fill="#000000" fill-opacity="1"/>
 <path d="M800.6659927368164,2875 c-12,-5 -27,-21 -32,-35 c-6,-17 -10,-321 -10,-815 l0,-790 l28,-29 c41,-45 494,-432 514,-440 c9,-3 377,-4 818,-1 c697,4 802,7 810,20 c6,9 9,120 7,270 l-2,255 l-60,0 l-60,0 l-5,-215 l-5,-215 l-722,-3 l-722,-2 l-68,58 c-37,32 -143,122 -235,201 l-168,143 l0,739 l0,739 l960,0 l960,0 l0,-210 l0,-210 l65,0 l65,0 l0,250 l0,251 l-25,24 l-24,25 l-1033,-1 c-595,0 -1043,-4 -1056,-9 z" id="svg_7" fill="#000000" fill-opacity="1"/>
 <path d="M1543.6659927368164,2242 c-3,-6 -4,-197 -3,-422 l3,-410 l205,0 c170,0 214,3 255,18 c136,47 202,177 162,318 c-19,64 -78,131 -131,149 c-20,6 -36,15 -36,18 c0,4 57,79 125,167 c69,88 125,163 125,168 c0,4 -60,7 -134,7 l-134,0 l-106,-162 l-106,-163 l0,163 l0,162 l-110,0 c-79,0 -112,-4 -115,-13 zm345,-472 c37,-19 50,-43 50,-93 c0,-47 -30,-80 -87,-93 c-85,-19 -83,-22 -83,96 l0,105 l45,0 c26,0 59,-7 75,-15 z" id="svg_8" fill="#000000" fill-opacity="1"/>
 <path d="M2318.6659927368164,1830 l0,-425 l245,0 l245,0 l0,95 l0,95 l-135,0 l-135,0 l0,70 l0,70 l120,0 l120,0 l0,96 l0,95 l-97,-1 c-54,-1 -108,-1 -120,-1 c-22,1 -23,3 -25,164 l-3,162 l-107,3 l-108,3 l0,-426 z" id="svg_9" fill="#000000" fill-opacity="1"/>
 <path d="M2933.6659927368164,2243 c-3,-7 -4,-198 -3,-423 l3,-410 l110,0 l110,0 l0,420 l0,420 l-108,3 c-80,2 -109,-1 -112,-10 z" id="svg_10" fill="#000000" fill-opacity="1"/>
 <path d="M3305.6659927368164,2248 c-4,-3 -7,-195 -7,-425 l0,-418 l175,0 c95,0 198,5 227,11 c130,27 253,121 309,234 c57,116 50,278 -16,391 c-61,104 -179,184 -300,204 c-67,11 -378,14 -388,3 zm399,-214 c34,-18 58,-39 79,-74 c27,-44 30,-56 30,-129 c-1,-89 -13,-123 -62,-167 c-45,-42 -89,-60 -165,-66 c-65,-6 -71,-5 -65,11 c4,10 7,117 7,238 l0,220 l64,-4 c41,-2 80,-12 112,-29 z" id="svg_11" fill="#000000" fill-opacity="1"/>
 </g></g></svg>