<svg width="12000" height="11327" xmlns="http://www.w3.org/2000/svg" preserveAspectRatio="xMidYMid meet">

 <g>
  <title>background</title>
  <rect fill="none" id="canvas_background" height="11329" width="12002" y="-1" x="-1"/>
 </g>
 <g>
  <title>Layer 1</title>
  <g fill="#010101" id="layer101">
   <path id="svg_1" d="m5700,9549c-474,-30 -961,-138 -1405,-314c-160,-63 -472,-216 -615,-302c-360,-215 -610,-411 -911,-712c-193,-194 -279,-291 -419,-476c-779,-1026 -1084,-2364 -829,-3640c151,-760 481,-1444 988,-2050c108,-130 427,-446 561,-557c552,-456 1144,-756 1820,-922c1222,-301 2511,-86 3555,592c780,507 1395,1243 1742,2085c229,558 343,1137 343,1747c0,332 -25,587 -90,910c-178,886 -603,1674 -1250,2320c-638,636 -1435,1063 -2315,1239c-379,76 -791,104 -1175,80zm827,-168c505,-69 945,-201 1383,-414c856,-417 1566,-1117 2000,-1972c254,-501 402,-1011 462,-1595c18,-182 16,-658 -5,-845c-60,-542 -196,-1017 -427,-1490c-623,-1275 -1832,-2182 -3222,-2414c-279,-47 -389,-56 -713,-56c-314,0 -405,5 -595,30c-777,103 -1511,410 -2125,889c-906,706 -1508,1743 -1664,2866c-26,191 -32,260 -40,459c-38,1013 270,1994 879,2806c547,729 1295,1267 2156,1551c293,96 627,167 944,199c211,21 771,13 967,-14z"/>
  </g>
  <g fill="#632285" id="layer102">
   <path id="svg_2" d="m3190,6814c-14,-2 -59,-9 -100,-15c-241,-35 -511,-175 -713,-368c-282,-270 -454,-607 -532,-1036c-23,-124 -28,-458 -10,-590c33,-238 87,-421 185,-620c135,-278 315,-489 547,-645c235,-158 466,-231 732,-232c376,-2 713,148 997,444c318,332 498,803 497,1308c0,346 -65,621 -219,920c-217,421 -570,711 -983,806c-102,24 -334,40 -401,28zm257,-585c213,-73 404,-339 492,-687c194,-758 -114,-1624 -594,-1669c-263,-24 -515,218 -643,618c-54,168 -74,295 -79,509c-10,338 43,606 165,844c168,327 412,470 659,385z"/>
  </g>
  <g fill="#a9b900" id="layer103">
   <path id="svg_3" d="m5253,5751c-136,-47 -206,-112 -248,-230c-18,-51 -21,-143 -30,-706c-3,-220 -8,-470 -10,-555c-6,-226 -20,-1093 -19,-1175c2,-77 30,-158 67,-194c12,-11 45,-30 72,-43c48,-22 61,-23 285,-23c234,0 235,0 285,26c60,32 100,90 115,169c6,32 12,291 15,610c9,1050 12,1156 34,1205c21,49 72,87 136,104c22,6 195,13 385,16c190,3 369,10 398,16c64,13 116,54 133,107c17,52 5,480 -16,550c-18,58 -56,109 -94,124c-16,6 -282,11 -676,14c-357,2 -672,6 -700,9c-38,3 -70,-2 -132,-24z"/>
  </g>
  <g fill="#fe7701" id="layer104">
   <path id="svg_4" d="m8913,7015c-91,-28 -183,-103 -223,-181c-13,-26 -272,-503 -517,-954c-46,-85 -88,-159 -92,-163c-4,-4 -59,68 -121,160c-63,92 -193,285 -290,428c-97,143 -218,322 -269,397c-112,166 -152,198 -241,198c-61,0 -118,-29 -158,-80c-42,-54 -259,-408 -276,-450c-11,-26 -21,-83 -24,-136c-5,-106 17,-197 66,-274c17,-25 228,-269 470,-544l441,-498l-45,-90c-25,-49 -76,-153 -113,-231c-38,-78 -157,-322 -266,-542c-201,-409 -224,-468 -210,-544c20,-109 100,-204 197,-237c98,-32 230,-18 338,36c86,44 130,99 402,510c148,223 272,406 276,407c4,1 185,-203 402,-454c335,-387 405,-463 460,-498c147,-94 295,-109 389,-38c70,54 90,161 48,263c-19,46 -315,490 -794,1192c-51,75 -93,142 -93,149c0,6 255,395 567,863c619,930 610,914 583,1010c-15,54 -60,111 -109,135c-20,11 -170,56 -333,100c-314,86 -375,95 -465,66z"/>
  </g>
  <text font-style="italic" font-weight="normal" stroke="#000" transform="matrix(43.98332595825194,0,0,44.9611111315392,-143973.47029036278,-424769.65016114025) " xml:space="preserve" text-anchor="start" font-family="Helvetica, Arial, sans-serif" font-size="24" id="svg_5" y="9681.864515" x="3374.425215" stroke-width="0" fill="#000000">R_ade</text>
 </g>
</svg>