<!DOCTYPE svg PUBLIC "-//W3C//DTD SVG 20010904//EN" "http://www.w3.org/TR/2001/REC-SVG-20010904/DTD/svg10.dtd">
<svg version="1.0" xmlns="http://www.w3.org/2000/svg" width="1200px" height="1000px" viewBox="0 0 12000 10000" preserveAspectRatio="xMidYMid meet">
<g id="layer101" fill="#010101" stroke="none">
 <path d="M5700 9549 c-474 -30 -961 -138 -1405 -314 -160 -63 -472 -216 -615 -302 -360 -215 -610 -411 -911 -712 -193 -194 -279 -291 -419 -476 -779 -1026 -1084 -2364 -829 -3640 151 -760 481 -1444 988 -2050 108 -130 427 -446 561 -557 552 -456 1144 -756 1820 -922 1222 -301 2511 -86 3555 592 780 507 1395 1243 1742 2085 229 558 343 1137 343 1747 0 332 -25 587 -90 910 -178 886 -603 1674 -1250 2320 -638 636 -1435 1063 -2315 1239 -379 76 -791 104 -1175 80z m827 -168 c505 -69 945 -201 1383 -414 856 -417 1566 -1117 2000 -1972 254 -501 402 -1011 462 -1595 18 -182 16 -658 -5 -845 -60 -542 -196 -1017 -427 -1490 -623 -1275 -1832 -2182 -3222 -2414 -279 -47 -389 -56 -713 -56 -314 0 -405 5 -595 30 -777 103 -1511 410 -2125 889 -906 706 -1508 1743 -1664 2866 -26 191 -32 260 -40 459 -38 1013 270 1994 879 2806 547 729 1295 1267 2156 1551 293 96 627 167 944 199 211 21 771 13 967 -14z"/>
 </g>
<g id="layer102" fill="#632285" stroke="none">
 <path d="M3190 6814 c-14 -2 -59 -9 -100 -15 -241 -35 -511 -175 -713 -368 -282 -270 -454 -607 -532 -1036 -23 -124 -28 -458 -10 -590 33 -238 87 -421 185 -620 135 -278 315 -489 547 -645 235 -158 466 -231 732 -232 376 -2 713 148 997 444 318 332 498 803 497 1308 0 346 -65 621 -219 920 -217 421 -570 711 -983 806 -102 24 -334 40 -401 28z m257 -585 c213 -73 404 -339 492 -687 194 -758 -114 -1624 -594 -1669 -263 -24 -515 218 -643 618 -54 168 -74 295 -79 509 -10 338 43 606 165 844 168 327 412 470 659 385z"/>
 </g>
<g id="layer103" fill="#a9b900" stroke="none">
 <path d="M5253 5751 c-136 -47 -206 -112 -248 -230 -18 -51 -21 -143 -30 -706 -3 -220 -8 -470 -10 -555 -6 -226 -20 -1093 -19 -1175 2 -77 30 -158 67 -194 12 -11 45 -30 72 -43 48 -22 61 -23 285 -23 234 0 235 0 285 26 60 32 100 90 115 169 6 32 12 291 15 610 9 1050 12 1156 34 1205 21 49 72 87 136 104 22 6 195 13 385 16 190 3 369 10 398 16 64 13 116 54 133 107 17 52 5 480 -16 550 -18 58 -56 109 -94 124 -16 6 -282 11 -676 14 -357 2 -672 6 -700 9 -38 3 -70 -2 -132 -24z"/>
 </g>
<g id="layer104" fill="#fe7701" stroke="none">
 <path d="M8913 7015 c-91 -28 -183 -103 -223 -181 -13 -26 -272 -503 -517 -954 -46 -85 -88 -159 -92 -163 -4 -4 -59 68 -121 160 -63 92 -193 285 -290 428 -97 143 -218 322 -269 397 -112 166 -152 198 -241 198 -61 0 -118 -29 -158 -80 -42 -54 -259 -408 -276 -450 -11 -26 -21 -83 -24 -136 -5 -106 17 -197 66 -274 17 -25 228 -269 470 -544 l441 -498 -45 -90 c-25 -49 -76 -153 -113 -231 -38 -78 -157 -322 -266 -542 -201 -409 -224 -468 -210 -544 20 -109 100 -204 197 -237 98 -32 230 -18 338 36 86 44 130 99 402 510 148 223 272 406 276 407 4 1 185 -203 402 -454 335 -387 405 -463 460 -498 147 -94 295 -109 389 -38 70 54 90 161 48 263 -19 46 -315 490 -794 1192 -51 75 -93 142 -93 149 0 6 255 395 567 863 619 930 610 914 583 1010 -15 54 -60 111 -109 135 -20 11 -170 56 -333 100 -314 86 -375 95 -465 66z"/>
 </g>

</svg>