<svg width="1340" height="2670" xmlns="http://www.w3.org/2000/svg" preserveAspectRatio="xMidYMid meet">

 <g>
  <title>background</title>
  <rect fill="none" id="canvas_background" height="402" width="582" y="-1" x="-1"/>
 </g>
 <g>
  <title>Layer 1</title>
  <g fill="#1b1b19" id="layer101">
   <path id="svg_1" d="m16.774194,1337.580645l0,-1335l670,0l670,0l0,1335l0,1335l-670,0l-670,0l0,-1335z"/>
  </g>
  <g fill="white" id="layer102">
   <path id="svg_2" d="m0.666665,1336.597262l0,-1335l670,0l670,0l0,1335l0,1335l-670,0l-670,0l0,-1335zm479,-115c10,-20 20,55 20,165l1,130l30,0l30,0l0,-142c0,-78 4,-144 9,-147c15,-10 21,145 21,596l0,448l60,0l60,0l0,-406c0,-396 0,-406 20,-411c18,-5 20,-15 22,-186l3,-182l35,-5c48,-8 78,-30 122,-88c82,-107 126,-244 114,-357c-15,-140 -53,-280 -91,-331c-28,-37 -122,-88 -200,-109c-76,-19 -224,-19 -300,0c-87,23 -173,73 -202,117c-58,87 -104,343 -82,451c29,138 142,299 222,314l42,9l3,182c2,174 3,182 22,182c20,0 20,9 22,413l2,412l6,-525c3,-289 7,-527 9,-530zm81,923l0,-128l-30,0l-30,0l0,128l0,127l30,0l30,0l0,-127zm0,-377l0,-181l-30,0l-30,0l0,180l0,180l30,1l30,1l0,-181z"/>
   <path id="svg_3" d="m644.666665,2146.597262c-7,-18 3,-35 21,-35c21,0 28,19 15,35c-16,19 -29,19 -36,0z"/>
   <path id="svg_4" d="m644.666665,2056.597262c-7,-18 3,-35 21,-35c21,0 28,19 15,35c-16,19 -29,19 -36,0z"/>
   <path id="svg_5" d="m644.666665,1966.597262c-4,-9 -2,-21 4,-27c15,-15 44,-1 40,19c-4,23 -36,29 -44,8z"/>
   <path id="svg_6" d="m644.666665,1876.597262c-4,-9 -2,-21 3,-26c14,-14 45,1 41,20c-4,22 -37,26 -44,6z"/>
   <path id="svg_7" d="m643.666665,1785.597262c-3,-8 -1,-20 6,-27c14,-14 47,15 37,32c-10,16 -36,13 -43,-5z"/>
   <path id="svg_8" d="m643.666665,1695.597262c-8,-22 18,-37 36,-20c7,8 10,19 7,25c-10,16 -36,13 -43,-5z"/>
   <path id="svg_9" d="m387.666665,453.597262c-74,-82 110,-156 292,-118c107,23 152,75 103,119c-16,15 -45,17 -199,17c-162,0 -182,-2 -196,-18z"/>
   <path id="svg_10" d="m517.666665,2075.597262c-8,-8 1,-24 14,-24c5,0 9,7 9,15c0,15 -12,20 -23,9z"/>
   <path id="svg_11" d="m517.666665,1915.597262c-8,-8 1,-24 14,-24c5,0 9,7 9,15c0,15 -12,20 -23,9z"/>
   <path id="svg_12" d="m515.666665,1832.597262c-7,-12 12,-24 25,-16c11,7 4,25 -10,25c-5,0 -11,-4 -15,-9z"/>
   <path id="svg_13" d="m515.666665,1662.597262c-7,-12 12,-24 25,-16c11,7 4,25 -10,25c-5,0 -11,-4 -15,-9z"/>
  </g>
  <rect id="svg_16" height="114.999999" width="60.000004" y="1483.000001" x="500.833335" stroke-width="15" fill="#191c19"/>
  <rect id="svg_17" height="81.666736" width="60.000009" y="1942.999029" x="500.833331" stroke-width="15" fill="#191c19"/>
  <ellipse ry="13.225806" rx="15.806452" id="svg_23" cy="1546.129036" cx="529.354839" stroke-opacity="null" stroke-width="15" stroke="null" fill="#ffffff"/>
  <rect stroke="#191c19" id="svg_27" height="817.181377" width="11.724138" y="1445.007518" x="451.034483" stroke-opacity="null" stroke-width="15" fill="#191c19"/>
 </g>
</svg>